<svg width="30" height="30" viewBox="0 0 30 30" xmlns="http://www.w3.org/2000/svg"><path d="M21.7882 15C21.7882 15.2764 21.7364 15.5438 21.6328 15.8022C21.5291 16.0619 21.391 16.2782 21.2182 16.4509L11.6836 25.9855C11.3036 26.3656 10.82 26.5556 10.2327 26.5556C9.64541 26.5556 9.16177 26.3656 8.78177 25.9855C8.40176 25.6055 8.21176 25.1219 8.21176 24.5346C8.21176 23.9473 8.40176 23.4637 8.78177 23.0837L16.8655 15L8.78177 6.91629C8.40176 6.53629 8.21176 6.05265 8.21176 5.46537C8.21176 4.87809 8.40177 4.39446 8.78177 4.01445C9.16177 3.63445 9.64541 3.44444 10.2327 3.44444C10.82 3.44444 11.3036 3.63445 11.6836 4.01445L21.2182 13.5491C21.4255 13.7564 21.572 13.9809 21.6577 14.2227C21.7447 14.4645 21.7882 14.7236 21.7882 15V15Z"/></svg>