<svg width="50" height="50" viewBox="0 0 50 50" xmlns="http://www.w3.org/2000/svg"><path d="M25 36.7489C24.5217 36.7489 24.0589 36.6592 23.6117 36.4798C23.162 36.3004 22.7877 36.0613 22.4888 35.7623L5.98655 19.2601C5.32885 18.6024 5 17.7653 5 16.7489C5 15.7324 5.32885 14.8954 5.98655 14.2377C6.64424 13.58 7.48132 13.2511 8.49776 13.2511C9.5142 13.2511 10.3513 13.58 11.009 14.2377L25 28.2287L38.991 14.2377C39.6487 13.58 40.4858 13.2511 41.5022 13.2511C42.5187 13.2511 43.3557 13.58 44.0134 14.2377C44.6711 14.8954 45 15.7324 45 16.7489C45 17.7653 44.6711 18.6024 44.0134 19.2601L27.5112 35.7623C27.1525 36.1211 26.7638 36.3746 26.3453 36.5229C25.9268 36.6735 25.4783 36.7489 25 36.7489V36.7489Z"/></svg>