<svg width="80" height="80" viewBox="0 0 80 80" xmlns="http://www.w3.org/2000/svg"><path fill-rule="evenodd" clip-rule="evenodd" d="M40 0C17.9086 0 0 17.9086 0 40C0 62.0914 17.9086 80 40 80C62.0914 80 80 62.0914 80 40C80 17.9086 62.0914 0 40 0ZM41.2341 28.6837C40.8366 28.5242 40.4252 28.4445 40.0001 28.4445C39.5749 28.4445 39.1763 28.5115 38.8042 28.6454C38.4322 28.7772 38.0868 29.0025 37.7679 29.3214L23.0992 43.9901C22.5146 44.5747 22.2223 45.3188 22.2223 46.2223C22.2223 47.1258 22.5146 47.8698 23.0992 48.4544C23.6838 49.0391 24.4279 49.3314 25.3314 49.3314C26.2349 49.3314 26.979 49.0391 27.5636 48.4545L40.0001 36.018L52.4365 48.4545C53.0211 49.0391 53.7652 49.3314 54.6687 49.3314C55.5722 49.3314 56.3163 49.0391 56.9009 48.4545C57.4855 47.8698 57.7778 47.1258 57.7778 46.2223C57.7778 45.3188 57.4855 44.5747 56.9009 43.9901L42.2322 29.3214C41.9665 29.0557 41.6338 28.8431 41.2341 28.6837Z"/></svg>