<svg width="28" height="28" viewBox="0 0 28 28" xmlns="http://www.w3.org/2000/svg"><path fill-rule="evenodd" clip-rule="evenodd" d="M14.0167 15.9035L21.6987 23.5854C21.9548 23.8328 22.2978 23.9697 22.6538 23.9666C23.0099 23.9635 23.3505 23.8207 23.6023 23.5689C23.854 23.3171 23.9969 22.9765 24 22.6205C24.003 22.2644 23.8662 21.9214 23.6188 21.6653L15.9368 13.9833L23.6188 6.30135C23.8662 6.04523 24.003 5.70221 24 5.34616C23.9969 4.99011 23.854 4.64951 23.6023 4.39774C23.3505 4.14596 23.0099 4.00315 22.6538 4.00005C22.2978 3.99696 21.9548 4.13383 21.6987 4.38119L14.0167 12.0632L6.33472 4.38119C6.07745 4.13995 5.73642 4.00825 5.38378 4.01398C5.03115 4.01971 4.69457 4.1624 4.44527 4.41188C4.19597 4.66135 4.05351 4.99803 4.04804 5.35067C4.04256 5.70331 4.1745 6.04425 4.41593 6.30135L12.0965 13.9833L4.41457 21.6653C4.28487 21.7906 4.18142 21.9404 4.11025 22.1061C4.03908 22.2717 4.00162 22.4499 4.00005 22.6302C3.99848 22.8106 4.03284 22.9894 4.10112 23.1563C4.1694 23.3231 4.27023 23.4748 4.39774 23.6023C4.52524 23.7298 4.67686 23.8306 4.84375 23.8989C5.01063 23.9672 5.18945 24.0015 5.36976 24C5.55007 23.9984 5.72826 23.9609 5.89393 23.8898C6.05961 23.8186 6.20945 23.7151 6.33472 23.5854L14.0167 15.9035Z"/></svg>