<svg width="50" height="50" viewBox="0 0 50 50" xmlns="http://www.w3.org/2000/svg"><path d="M43.8776 17.2159C43.8563 15.6203 43.5571 14.0407 42.9934 12.5475C42.5046 11.288 41.758 10.1442 40.8013 9.18913C39.8446 8.23404 38.6989 7.48868 37.4374 7.00067C35.961 6.44737 34.4012 6.14819 32.8245 6.11587C30.7945 6.02528 30.1509 6 24.9979 6C19.8448 6 19.1844 6 17.1691 6.11587C15.5932 6.14842 14.0342 6.4476 12.5584 7.00067C11.2967 7.48834 10.1508 8.23358 9.19403 9.18872C8.2373 10.1439 7.49081 11.2878 7.00233 12.5475C6.447 14.0203 6.14797 15.5771 6.11817 17.1506C6.02743 19.1793 6 19.8218 6 24.9663C6 30.1108 6 30.768 6.11817 32.782C6.14982 34.3578 6.44736 35.9125 7.00233 37.3893C7.49163 38.6486 8.23867 39.7921 9.19572 40.7468C10.1528 41.7016 11.2988 42.4465 12.5605 42.934C14.0322 43.5096 15.5915 43.8302 17.1713 43.882C19.2034 43.9726 19.847 44 25 44C30.153 44 30.8135 44 32.8287 43.882C34.4054 43.851 35.9652 43.5526 37.4416 42.9993C38.7028 42.5108 39.8483 41.7652 40.8049 40.8102C41.7615 39.8552 42.5083 38.7116 42.9977 37.4525C43.5526 35.9778 43.8502 34.4231 43.8818 32.8452C43.9726 30.8186 44 30.1761 44 25.0295C43.9958 19.885 43.9958 19.232 43.8776 17.2159V17.2159ZM24.9852 34.6949C19.5958 34.6949 15.2299 30.3362 15.2299 24.9558C15.2299 19.5753 19.5958 15.2167 24.9852 15.2167C27.5725 15.2167 30.0538 16.2427 31.8833 18.0692C33.7128 19.8956 34.7406 22.3728 34.7406 24.9558C34.7406 27.5387 33.7128 30.0159 31.8833 31.8424C30.0538 33.6688 27.5725 34.6949 24.9852 34.6949V34.6949ZM35.1288 17.1274C34.83 17.1277 34.5341 17.0691 34.258 16.9551C33.9819 16.8411 33.731 16.6738 33.5197 16.4629C33.3084 16.2519 33.1409 16.0015 33.0267 15.7258C32.9124 15.4502 32.8538 15.1547 32.8541 14.8564C32.8541 14.5583 32.9129 14.2632 33.0271 13.9878C33.1414 13.7124 33.3089 13.4621 33.52 13.2513C33.7312 13.0405 33.9818 12.8733 34.2577 12.7593C34.5335 12.6452 34.8292 12.5865 35.1278 12.5865C35.4264 12.5865 35.722 12.6452 35.9979 12.7593C36.2737 12.8733 36.5244 13.0405 36.7355 13.2513C36.9467 13.4621 37.1141 13.7124 37.2284 13.9878C37.3427 14.2632 37.4015 14.5583 37.4015 14.8564C37.4015 16.112 36.3844 17.1274 35.1288 17.1274Z"/></svg>