<svg width="50" height="50" viewBox="0 0 50 50" xmlns="http://www.w3.org/2000/svg"><path fill-rule="evenodd" clip-rule="evenodd" d="M25 44.7872C35.9866 44.7872 44.893 35.9282 44.893 25C44.893 14.0718 35.9866 5.21276 25 5.21276C14.0134 5.21276 5.10695 14.0718 5.10695 25C5.10695 35.9282 14.0134 44.7872 25 44.7872ZM36.2017 18.5163C37.298 18.3725 38.356 18.0719 39.3375 17.6144C38.5982 18.7516 37.6804 19.7451 36.6096 20.5294C36.6224 20.7778 36.6224 21.0131 36.6224 21.2614C36.6224 28.6732 31.1029 37.2222 21.0583 37.2222C17.9736 37.2222 15.0927 36.2941 12.6708 34.6993C13.1042 34.7516 13.5376 34.7778 13.971 34.7778C16.4363 34.79 18.8322 33.9418 20.7652 32.3726C19.6249 32.3512 18.5198 31.964 17.6052 31.2653C16.6906 30.5665 16.0126 29.5915 15.6664 28.4771C16.4823 28.6421 17.3244 28.6107 18.1265 28.3856C15.6281 27.8758 13.7416 25.6013 13.7416 22.8824V22.8431C14.4809 23.2353 15.3222 23.4967 16.2272 23.4967C14.7486 22.5163 13.7926 20.7908 13.7926 18.8431C13.7926 17.8235 14.0602 16.8562 14.5319 16.0327C17.2215 19.4183 21.2623 21.6536 25.8002 21.8889C25.711 21.4837 25.66 21.0523 25.66 20.6078C25.66 17.5098 28.1074 15 31.1029 15C32.7091 15 34.124 15.6536 35.131 16.7778C36.3674 16.5163 37.5402 16.0588 38.5982 15.4052C38.1903 16.7255 37.3235 17.8235 36.2017 18.5163Z"/></svg>