<svg width="50" height="50" viewBox="0 0 50 50" xmlns="http://www.w3.org/2000/svg"><path fill-rule="evenodd" clip-rule="evenodd" d="M25 5.5C27.0378 5.5 29.1279 5.55363 31.1538 5.64138L33.5466 5.75837L35.837 5.89731L37.982 6.046L39.9411 6.202C42.0672 6.36843 44.0677 7.29631 45.5909 8.82241C47.114 10.3485 48.0622 12.3751 48.2685 14.5456L48.3638 15.5815L48.5426 17.7996C48.7094 20.0982 48.8333 22.6039 48.8333 25C48.8333 27.3961 48.7094 29.9018 48.5426 32.2004L48.3638 34.4185C48.3328 34.7744 48.3019 35.1181 48.2685 35.4544C48.0621 37.6253 47.1136 39.6522 45.59 41.1783C44.0663 42.7045 42.0652 43.6321 39.9387 43.798L37.9844 43.9516L35.8394 44.1027L33.5466 44.2416L31.1538 44.3586C29.1037 44.4497 27.052 44.4969 25 44.5C22.948 44.4969 20.8963 44.4497 18.8462 44.3586L16.4534 44.2416L14.163 44.1027L12.018 43.9516L10.0589 43.798C7.93283 43.6316 5.93226 42.7037 4.40913 41.1776C2.88599 39.6515 1.93785 37.6249 1.73152 35.4544L1.63618 34.4185L1.45743 32.2004C1.2752 29.8046 1.17821 27.4029 1.16667 25C1.16667 22.6039 1.2906 20.0982 1.45743 17.7996L1.63618 15.5815C1.66717 15.2256 1.69815 14.8819 1.73152 14.5456C1.93777 12.3755 2.88557 10.3492 4.40822 8.82315C5.93087 7.2971 7.93087 6.36898 10.0565 6.202L12.0132 6.046L14.1582 5.89731L16.451 5.75837L18.8438 5.64138C20.8947 5.55029 22.9472 5.50316 25 5.5V5.5ZM20.2333 19.0891V30.9109C20.2333 32.0371 21.425 32.7391 22.3783 32.1784L32.3883 26.2675C32.6062 26.1393 32.7871 25.9546 32.9129 25.7321C33.0387 25.5095 33.1049 25.257 33.1049 25C33.1049 24.743 33.0387 24.4905 32.9129 24.2679C32.7871 24.0454 32.6062 23.8607 32.3883 23.7325L22.3783 17.824C22.1609 17.6956 21.9142 17.628 21.6631 17.6281C21.412 17.6281 21.1653 17.6958 20.9479 17.8242C20.7305 17.9527 20.55 18.1375 20.4246 18.3599C20.2991 18.5824 20.2332 18.8347 20.2333 19.0915V19.0891Z"/></svg>