<svg width="40" height="40" viewBox="0 0 40 40" xmlns="http://www.w3.org/2000/svg"><path d="M19.9929 0C8.9868 0 0 8.98565 0 20.0053C0 31.0144 8.9875 40 19.9929 40C31.0139 40 40 31.0144 40 20.0053C40 8.98636 31.0139 0 19.9929 0ZM29.7227 27.189C29.3276 28.3129 28.7074 29.35 27.8417 30.3243C26.9879 31.2761 25.828 32.0479 24.4154 32.6349C22.9845 33.2325 21.3011 33.5225 19.3551 33.5225C18.3701 33.5225 17.3555 33.4593 16.3155 33.3088C15.2896 33.1804 14.2736 32.9461 13.2802 32.6349C12.2839 32.3252 11.3617 31.9175 10.5052 31.4151L11.4203 25.6989C12.8364 26.5477 15.5175 27.4465 17.9976 27.5305C20.5785 27.6173 22.2783 26.5441 22.528 24.5136C22.7962 22.3511 21.0435 20.9366 17.7803 20.751C15.3545 20.6114 13.4192 20.9895 12.1223 21.4156L14.4542 6.7406H30.0748L29.0496 13.5786H19.1625L18.7892 15.7608C19.7079 15.6007 20.5729 15.5153 21.3893 15.5153C22.8223 15.5153 24.0958 15.7283 25.2205 16.1573C26.3416 16.563 27.2948 17.1528 28.0427 17.9113C28.7949 18.6606 29.3586 19.5481 29.7368 20.5527C30.1192 21.5709 30.3013 22.6736 30.3013 23.8603C30.3006 24.9758 30.1079 26.0877 29.7227 27.189Z" fill="#CE6462"/></svg>