<svg width="0" height="0" class="hidden">
  <symbol xmlns="http://www.w3.org/2000/svg" viewBox="0 0 28 28" id="close">
    <path fill-rule="evenodd" clip-rule="evenodd" d="M14.0167 15.9035L21.6987 23.5854C21.9548 23.8328 22.2978 23.9697 22.6538 23.9666C23.0099 23.9635 23.3505 23.8207 23.6023 23.5689C23.854 23.3171 23.9969 22.9765 24 22.6205C24.003 22.2644 23.8662 21.9214 23.6188 21.6653L15.9368 13.9833L23.6188 6.30135C23.8662 6.04523 24.003 5.70221 24 5.34616C23.9969 4.99011 23.854 4.64951 23.6023 4.39774C23.3505 4.14596 23.0099 4.00315 22.6538 4.00005C22.2978 3.99696 21.9548 4.13383 21.6987 4.38119L14.0167 12.0632L6.33472 4.38119C6.07745 4.13995 5.73642 4.00825 5.38378 4.01398C5.03115 4.01971 4.69457 4.1624 4.44527 4.41188C4.19597 4.66135 4.05351 4.99803 4.04804 5.35067C4.04256 5.70331 4.1745 6.04425 4.41593 6.30135L12.0965 13.9833L4.41457 21.6653C4.28487 21.7906 4.18142 21.9404 4.11025 22.1061C4.03908 22.2717 4.00162 22.4499 4.00005 22.6302C3.99848 22.8106 4.03284 22.9894 4.10112 23.1563C4.1694 23.3231 4.27023 23.4748 4.39774 23.6023C4.52524 23.7298 4.67686 23.8306 4.84375 23.8989C5.01063 23.9672 5.18945 24.0015 5.36976 24C5.55007 23.9984 5.72826 23.9609 5.89393 23.8898C6.05961 23.8186 6.20945 23.7151 6.33472 23.5854L14.0167 15.9035Z"></path>
  </symbol>
  <symbol xmlns="http://www.w3.org/2000/svg" viewBox="0 0 50 50" id="sc-facebook">
    <path d="M45 25.1225C45 14.0089 36.0461 5 25.0025 5C13.9539 5.0025 5 14.0089 5 25.125C5 35.1662 12.3141 43.4902 21.8729 45V30.9393H16.7985V25.125H21.8779V20.688C21.8779 15.6462 24.865 12.8615 29.4319 12.8615C31.6217 12.8615 33.9089 13.254 33.9089 13.254V18.2034H31.3867C28.9045 18.2034 28.1296 19.7557 28.1296 21.348V25.1225H33.6739L32.789 30.9368H28.1271V44.9975C37.6859 43.4877 45 35.1637 45 25.1225Z"></path>
  </symbol>
  <symbol xmlns="http://www.w3.org/2000/svg" viewBox="0 0 50 50" id="sc-instagram">
    <path d="M43.8776 17.2159C43.8563 15.6203 43.5571 14.0407 42.9934 12.5475C42.5046 11.288 41.758 10.1442 40.8013 9.18913C39.8446 8.23404 38.6989 7.48868 37.4374 7.00067C35.961 6.44737 34.4012 6.14819 32.8245 6.11587C30.7945 6.02528 30.1509 6 24.9979 6C19.8448 6 19.1844 6 17.1691 6.11587C15.5932 6.14842 14.0342 6.4476 12.5584 7.00067C11.2967 7.48834 10.1508 8.23358 9.19403 9.18872C8.2373 10.1439 7.49081 11.2878 7.00233 12.5475C6.447 14.0203 6.14797 15.5771 6.11817 17.1506C6.02743 19.1793 6 19.8218 6 24.9663C6 30.1108 6 30.768 6.11817 32.782C6.14982 34.3578 6.44736 35.9125 7.00233 37.3893C7.49163 38.6486 8.23867 39.7921 9.19572 40.7468C10.1528 41.7016 11.2988 42.4465 12.5605 42.934C14.0322 43.5096 15.5915 43.8302 17.1713 43.882C19.2034 43.9726 19.847 44 25 44C30.153 44 30.8135 44 32.8287 43.882C34.4054 43.851 35.9652 43.5526 37.4416 42.9993C38.7028 42.5108 39.8483 41.7652 40.8049 40.8102C41.7615 39.8552 42.5083 38.7116 42.9977 37.4525C43.5526 35.9778 43.8502 34.4231 43.8818 32.8452C43.9726 30.8186 44 30.1761 44 25.0295C43.9958 19.885 43.9958 19.232 43.8776 17.2159V17.2159ZM24.9852 34.6949C19.5958 34.6949 15.2299 30.3362 15.2299 24.9558C15.2299 19.5753 19.5958 15.2167 24.9852 15.2167C27.5725 15.2167 30.0538 16.2427 31.8833 18.0692C33.7128 19.8956 34.7406 22.3728 34.7406 24.9558C34.7406 27.5387 33.7128 30.0159 31.8833 31.8424C30.0538 33.6688 27.5725 34.6949 24.9852 34.6949V34.6949ZM35.1288 17.1274C34.83 17.1277 34.5341 17.0691 34.258 16.9551C33.9819 16.8411 33.731 16.6738 33.5197 16.4629C33.3084 16.2519 33.1409 16.0015 33.0267 15.7258C32.9124 15.4502 32.8538 15.1547 32.8541 14.8564C32.8541 14.5583 32.9129 14.2632 33.0271 13.9878C33.1414 13.7124 33.3089 13.4621 33.52 13.2513C33.7312 13.0405 33.9818 12.8733 34.2577 12.7593C34.5335 12.6452 34.8292 12.5865 35.1278 12.5865C35.4264 12.5865 35.722 12.6452 35.9979 12.7593C36.2737 12.8733 36.5244 13.0405 36.7355 13.2513C36.9467 13.4621 37.1141 13.7124 37.2284 13.9878C37.3427 14.2632 37.4015 14.5583 37.4015 14.8564C37.4015 16.112 36.3844 17.1274 35.1288 17.1274Z"></path>
  </symbol>
  <symbol xmlns="http://www.w3.org/2000/svg" viewBox="0 0 50 50" id="sc-twitter">
    <path fill-rule="evenodd" clip-rule="evenodd" d="M25 44.7872C35.9866 44.7872 44.893 35.9282 44.893 25C44.893 14.0718 35.9866 5.21276 25 5.21276C14.0134 5.21276 5.10695 14.0718 5.10695 25C5.10695 35.9282 14.0134 44.7872 25 44.7872ZM36.2017 18.5163C37.298 18.3725 38.356 18.0719 39.3375 17.6144C38.5982 18.7516 37.6804 19.7451 36.6096 20.5294C36.6224 20.7778 36.6224 21.0131 36.6224 21.2614C36.6224 28.6732 31.1029 37.2222 21.0583 37.2222C17.9736 37.2222 15.0927 36.2941 12.6708 34.6993C13.1042 34.7516 13.5376 34.7778 13.971 34.7778C16.4363 34.79 18.8322 33.9418 20.7652 32.3726C19.6249 32.3512 18.5198 31.964 17.6052 31.2653C16.6906 30.5665 16.0126 29.5915 15.6664 28.4771C16.4823 28.6421 17.3244 28.6107 18.1265 28.3856C15.6281 27.8758 13.7416 25.6013 13.7416 22.8824V22.8431C14.4809 23.2353 15.3222 23.4967 16.2272 23.4967C14.7486 22.5163 13.7926 20.7908 13.7926 18.8431C13.7926 17.8235 14.0602 16.8562 14.5319 16.0327C17.2215 19.4183 21.2623 21.6536 25.8002 21.8889C25.711 21.4837 25.66 21.0523 25.66 20.6078C25.66 17.5098 28.1074 15 31.1029 15C32.7091 15 34.124 15.6536 35.131 16.7778C36.3674 16.5163 37.5402 16.0588 38.5982 15.4052C38.1903 16.7255 37.3235 17.8235 36.2017 18.5163Z"></path>
  </symbol>
  <symbol xmlns="http://www.w3.org/2000/svg" viewBox="0 0 50 50" id="sc-youtube">
    <path fill-rule="evenodd" clip-rule="evenodd" d="M25 5.5C27.0378 5.5 29.1279 5.55363 31.1538 5.64138L33.5466 5.75837L35.837 5.89731L37.982 6.046L39.9411 6.202C42.0672 6.36843 44.0677 7.29631 45.5909 8.82241C47.114 10.3485 48.0622 12.3751 48.2685 14.5456L48.3638 15.5815L48.5426 17.7996C48.7094 20.0982 48.8333 22.6039 48.8333 25C48.8333 27.3961 48.7094 29.9018 48.5426 32.2004L48.3638 34.4185C48.3328 34.7744 48.3019 35.1181 48.2685 35.4544C48.0621 37.6253 47.1136 39.6522 45.59 41.1783C44.0663 42.7045 42.0652 43.6321 39.9387 43.798L37.9844 43.9516L35.8394 44.1027L33.5466 44.2416L31.1538 44.3586C29.1037 44.4497 27.052 44.4969 25 44.5C22.948 44.4969 20.8963 44.4497 18.8462 44.3586L16.4534 44.2416L14.163 44.1027L12.018 43.9516L10.0589 43.798C7.93283 43.6316 5.93226 42.7037 4.40913 41.1776C2.88599 39.6515 1.93785 37.6249 1.73152 35.4544L1.63618 34.4185L1.45743 32.2004C1.2752 29.8046 1.17821 27.4029 1.16667 25C1.16667 22.6039 1.2906 20.0982 1.45743 17.7996L1.63618 15.5815C1.66717 15.2256 1.69815 14.8819 1.73152 14.5456C1.93777 12.3755 2.88557 10.3492 4.40822 8.82315C5.93087 7.2971 7.93087 6.36898 10.0565 6.202L12.0132 6.046L14.1582 5.89731L16.451 5.75837L18.8438 5.64138C20.8947 5.55029 22.9472 5.50316 25 5.5V5.5ZM20.2333 19.0891V30.9109C20.2333 32.0371 21.425 32.7391 22.3783 32.1784L32.3883 26.2675C32.6062 26.1393 32.7871 25.9546 32.9129 25.7321C33.0387 25.5095 33.1049 25.257 33.1049 25C33.1049 24.743 33.0387 24.4905 32.9129 24.2679C32.7871 24.0454 32.6062 23.8607 32.3883 23.7325L22.3783 17.824C22.1609 17.6956 21.9142 17.628 21.6631 17.6281C21.412 17.6281 21.1653 17.6958 20.9479 17.8242C20.7305 17.9527 20.55 18.1375 20.4246 18.3599C20.2991 18.5824 20.2332 18.8347 20.2333 19.0915V19.0891Z"></path>
  </symbol>
  <symbol xmlns="http://www.w3.org/2000/svg" viewBox="0 0 50 50" id="arrow-type-1">
    <path d="M25 36.7489C24.5217 36.7489 24.0589 36.6592 23.6117 36.4798C23.162 36.3004 22.7877 36.0613 22.4888 35.7623L5.98655 19.2601C5.32885 18.6024 5 17.7653 5 16.7489C5 15.7324 5.32885 14.8954 5.98655 14.2377C6.64424 13.58 7.48132 13.2511 8.49776 13.2511C9.5142 13.2511 10.3513 13.58 11.009 14.2377L25 28.2287L38.991 14.2377C39.6487 13.58 40.4858 13.2511 41.5022 13.2511C42.5187 13.2511 43.3557 13.58 44.0134 14.2377C44.6711 14.8954 45 15.7324 45 16.7489C45 17.7653 44.6711 18.6024 44.0134 19.2601L27.5112 35.7623C27.1525 36.1211 26.7638 36.3746 26.3453 36.5229C25.9268 36.6735 25.4783 36.7489 25 36.7489V36.7489Z"></path>
  </symbol>
  <symbol xmlns="http://www.w3.org/2000/svg" viewBox="0 0 28 28" id="btn-toggle">
    <path fill-rule="evenodd" clip-rule="evenodd" d="M0 4C0 3.44772 0.447715 3 1 3H27C27.5523 3 28 3.44772 28 4C28 4.55228 27.5523 5 27 5H1C0.447715 5 0 4.55228 0 4ZM0 14C0 13.4477 0.447715 13 1 13H27C27.5523 13 28 13.4477 28 14C28 14.5523 27.5523 15 27 15H1C0.447715 15 0 14.5523 0 14ZM0 24C0 23.4477 0.447715 23 1 23H27C27.5523 23 28 23.4477 28 24C28 24.5523 27.5523 25 27 25H1C0.447715 25 0 24.5523 0 24Z"></path>
  </symbol>
</svg>